HIERARCHY
ROOT joint_0
{
	OFFSET 0.000000 0.000000 0.000000
	CHANNELS 6 Xposition Yposition Zposition Zrotation Yrotation Xrotation 
	JOINT joint_1
	{
		OFFSET 14.113007 -2.961990 123.953979
		CHANNELS 3 Zrotation Yrotation Xrotation
		JOINT joint_2
		{
			OFFSET 0.764000 -2.434006 113.871948
			CHANNELS 3 Zrotation Yrotation Xrotation
			JOINT joint_3
			{
				OFFSET 0.186996 -2.169998 113.753052
				CHANNELS 3 Zrotation Yrotation Xrotation
				JOINT joint_4
				{
					OFFSET 16.096001 -2.720001 160.853027
					CHANNELS 3 Zrotation Yrotation Xrotation
					JOINT joint_5
					{
						OFFSET 34.392006 -0.188995 92.567017
						CHANNELS 3 Zrotation Yrotation Xrotation
						End Site
						{
							OFFSET 0.000000 0.000000 0.000000
						}
					}
				}
				JOINT joint_6
				{
					OFFSET 9.183998 -36.684006 89.597046
					CHANNELS 3 Zrotation Yrotation Xrotation
					JOINT joint_7
					{
						OFFSET 0.486000 -164.365997 -28.984009
						CHANNELS 3 Zrotation Yrotation Xrotation
						JOINT joint_8
						{
							OFFSET 38.899002 -34.967010 -291.651978
							CHANNELS 3 Zrotation Yrotation Xrotation
							JOINT joint_9
							{
								OFFSET 41.714005 -45.890991 -258.857056
								CHANNELS 3 Zrotation Yrotation Xrotation
								End Site
								{
									OFFSET 0.000000 0.000000 0.000000
								}
							}
						}
					}
				}
				JOINT joint_10
				{
					OFFSET 8.867004 33.650002 90.817993
					CHANNELS 3 Zrotation Yrotation Xrotation
					JOINT joint_11
					{
						OFFSET 0.018997 164.299999 -29.368042
						CHANNELS 3 Zrotation Yrotation Xrotation
						JOINT joint_12
						{
							OFFSET 29.440994 30.887997 -293.216919
							CHANNELS 3 Zrotation Yrotation Xrotation
							JOINT joint_13
							{
								OFFSET 46.174011 54.490005 -256.422058
								CHANNELS 3 Zrotation Yrotation Xrotation
								End Site
								{
									OFFSET 0.000000 0.000000 0.000000
								}
							}
						}
					}
				}
			}
		}
	}
	JOINT joint_14
	{
		OFFSET -2.264000 -89.466995 -116.150024
		CHANNELS 3 Zrotation Yrotation Xrotation
		JOINT joint_15
		{
			OFFSET -16.400993 -17.452988 -493.781982
			CHANNELS 3 Zrotation Yrotation Xrotation
			JOINT joint_16
			{
				OFFSET -50.497004 -13.404022 -424.754013
				CHANNELS 3 Zrotation Yrotation Xrotation
				JOINT joint_17
				{
					OFFSET 198.546007 -19.341003 -89.309000
					CHANNELS 3 Zrotation Yrotation Xrotation
					End Site
					{
						OFFSET 0.000000 0.000000 0.000000
					}
				}
			}
		}
	}
	JOINT joint_18
	{
		OFFSET -0.867996 96.016006 -110.817993
		CHANNELS 3 Zrotation Yrotation Xrotation
		JOINT joint_19
		{
			OFFSET -10.130997 24.658998 -493.645020
			CHANNELS 3 Zrotation Yrotation Xrotation
			JOINT joint_20
			{
				OFFSET -48.871004 19.434999 -424.714005
				CHANNELS 3 Zrotation Yrotation Xrotation
				JOINT joint_21
				{
					OFFSET 195.579996 24.926001 -94.327003
					CHANNELS 3 Zrotation Yrotation Xrotation
					End Site
					{
						OFFSET 0.000000 0.000000 0.000000
					}
				}
			}
		}
	}
}
MOTION
Frames: 13
Frame Time: 0.016667
72.064000 -144.237000 1141.602050 -0.932184 -2.831297 -1.536242 -0.647597 0.170206 3.251620 -0.634381 -0.040280 -0.793213 -0.633056 0.137732 0.514072 0.282202 1.609934 -0.749107 0.000000 0.000000 0.000000 0.572714 1.411554 1.333517 -0.147568 1.533097 -0.066718 0.135814 -0.784992 -0.030757 0.000000 0.000000 0.000000 -2.725423 0.491132 -1.006549 0.221088 1.016255 0.677269 0.086336 0.666767 -0.320761 0.000000 0.000000 0.000000 2.670094 -1.575740 1.595173 2.499038 4.011102 0.795408 2.713788 -2.627055 0.959961 0.000000 0.000000 0.000000 -4.030277 0.705972 -0.703944 -3.950601 2.300290 -0.622560 -4.061036 -2.200440 -1.664717 0.000000 0.000000 0.000000 
72.704000 -144.531010 1141.676030 -0.858678 -2.444171 -1.597274 -0.451459 0.253425 3.452374 -0.437141 -0.040140 -0.791902 -0.436410 0.103191 0.533562 0.292418 1.407685 -0.777396 0.000000 0.000000 0.000000 0.948435 1.951680 0.904704 -0.123887 2.138094 0.117820 0.359237 -1.815428 0.211168 0.000000 0.000000 0.000000 -2.497780 0.262466 -1.062550 0.171409 0.738290 0.446711 0.094110 0.582751 -0.173172 0.000000 0.000000 0.000000 2.636546 -2.000493 1.634980 2.448878 4.086812 0.853242 2.678122 -2.677226 0.939060 0.000000 0.000000 0.000000 -4.034486 0.241183 -0.581282 -3.919602 2.456173 -0.688037 -4.052251 -2.280125 -1.650372 0.000000 0.000000 0.000000 
73.731000 -144.884000 1141.878050 -0.744920 -1.880768 -1.681307 -0.162237 0.392930 3.717118 -0.146921 -0.044172 -0.773825 -0.146990 0.050169 0.548745 0.299593 1.054753 -0.798002 0.000000 0.000000 0.000000 1.498322 2.752399 0.301730 -0.088866 3.034099 0.414472 0.677977 -3.321755 0.543348 0.000000 0.000000 0.000000 -2.168682 -0.041607 -1.084548 0.087879 0.360907 0.076558 0.083291 0.406448 -0.020236 0.000000 0.000000 0.000000 2.587293 -2.590746 1.686723 2.378546 4.154637 0.930259 2.625837 -2.739079 0.909582 0.000000 0.000000 0.000000 -4.046995 -0.408053 -0.410127 -3.885578 2.636145 -0.779103 -4.046414 -2.384428 -1.634267 0.000000 0.000000 0.000000 
75.910000 -145.299000 1142.240970 -0.559971 -1.180594 -1.727347 0.185631 0.611687 3.841986 0.199853 -0.072606 -0.747917 0.200497 0.055843 0.565317 0.230113 0.166598 -0.616828 0.000000 0.000000 0.000000 2.082847 3.738352 -0.468038 -0.047886 4.123021 0.813309 1.080342 -5.076584 1.217539 0.000000 0.000000 0.000000 -1.847059 -0.257304 -0.782403 -0.065979 0.060900 -0.422993 -0.064810 -0.099891 -0.241888 0.000000 0.000000 0.000000 2.524964 -3.135539 1.706494 2.306041 3.973764 0.965044 2.553685 -2.730909 0.878278 0.000000 0.000000 0.000000 -4.119650 -1.053408 -0.256652 -3.924518 2.600227 -0.851053 -4.089233 -2.378466 -1.655891 0.000000 0.000000 0.000000 
79.496000 -145.787000 1142.906980 -0.304020 -0.288848 -1.695637 0.676219 1.127889 3.716325 0.679644 -0.174061 -0.702039 0.684956 0.209121 0.576596 -0.004718 -1.977888 -0.021373 0.000000 0.000000 0.000000 2.690500 5.122655 -1.538134 -0.002178 5.617967 1.361532 1.709254 -7.773584 2.654333 0.000000 0.000000 0.000000 -1.438264 -0.417771 0.091631 -0.362954 -0.225257 -1.114427 -0.476089 -1.226433 -1.190822 0.000000 0.000000 0.000000 2.465077 -3.608960 1.656766 2.251053 3.397381 0.936717 2.469940 -2.590118 0.854977 0.000000 0.000000 0.000000 -4.281949 -1.667727 -0.147560 -4.077211 2.179209 -0.880547 -4.201126 -2.145305 -1.740103 0.000000 0.000000 0.000000 
84.235000 -146.338000 1143.734010 0.029156 0.714764 -1.613252 1.222006 1.788480 3.449876 1.207851 -0.299058 -0.598696 1.218491 0.386888 0.539705 -0.307570 -4.770806 0.662300 0.000000 0.000000 0.000000 3.261216 6.718113 -2.529578 -0.042455 7.339690 1.907664 2.336329 -10.944524 4.347008 0.000000 0.000000 0.000000 -0.962302 -0.518762 1.196105 -0.726300 -0.472215 -1.745947 -1.042972 -2.601963 -2.650756 0.000000 0.000000 0.000000 2.391863 -4.005540 1.570142 2.193752 2.563598 0.859828 2.365840 -2.360493 0.831257 0.000000 0.000000 0.000000 -4.502643 -2.247870 -0.061952 -4.303705 1.530834 -0.888542 -4.362304 -1.778846 -1.864990 0.000000 0.000000 0.000000 
90.131000 -146.919010 1144.338010 0.489145 1.627098 -1.530299 1.528121 1.971360 3.183949 1.508727 -0.310403 -0.482068 1.519567 0.390601 0.467741 -0.478401 -6.457899 0.960158 0.000000 0.000000 0.000000 3.743320 7.841141 -3.007547 -0.133404 8.583308 2.238233 2.599853 -12.386749 5.462986 0.000000 0.000000 0.000000 -0.781658 -0.329522 2.028100 -0.963422 -0.347171 -1.963099 -1.504293 -3.544716 -3.970984 0.000000 0.000000 0.000000 2.260136 -4.190227 1.521234 2.090024 1.664865 0.726945 2.209752 -2.118419 0.785369 0.000000 0.000000 0.000000 -4.746392 -2.689866 0.024418 -4.558259 0.919943 -0.908842 -4.559200 -1.476620 -1.998517 0.000000 0.000000 0.000000 
97.838000 -147.620000 1144.475950 1.131253 2.443659 -1.473227 1.407231 1.099357 2.919206 1.407344 -0.144243 -0.404635 1.411379 0.158458 0.403666 -0.386680 -6.005858 0.717051 0.000000 0.000000 0.000000 4.477793 8.235313 -2.972787 -0.157497 9.107461 2.313645 2.442414 -10.610473 5.923745 0.000000 0.000000 0.000000 -1.226000 0.444197 2.513984 -0.970688 0.513599 -1.691544 -1.743951 -3.836868 -4.917334 0.000000 0.000000 0.000000 2.030706 -4.026527 1.574743 1.915073 0.525773 0.484011 1.966949 -1.859935 0.702074 0.000000 0.000000 0.000000 -5.016200 -2.950141 0.152249 -4.843873 0.348656 -0.967840 -4.803164 -1.335966 -2.133690 0.000000 0.000000 0.000000 
106.702000 -148.353000 1144.390010 1.904282 3.180154 -1.406568 1.051618 -0.268238 2.621349 1.079318 0.091862 -0.354417 1.073561 -0.170730 0.356383 -0.165205 -4.427577 0.229066 0.000000 0.000000 0.000000 5.319820 8.160310 -2.623004 -0.199286 9.168080 2.158932 2.004420 -7.033495 6.035459 0.000000 0.000000 0.000000 -2.014193 1.534378 2.764699 -0.854209 1.770170 -1.182860 -1.848590 -3.801598 -5.597952 0.000000 0.000000 0.000000 1.741767 -3.664129 1.673294 1.692928 -0.682143 0.180709 1.673135 -1.559452 0.599651 0.000000 0.000000 0.000000 -5.311453 -3.088261 0.283031 -5.157710 -0.183395 -1.046116 -5.082995 -1.251969 -2.278273 0.000000 0.000000 0.000000 
114.771000 -148.819000 1144.427980 2.693303 3.698813 -1.319462 0.731567 -1.122979 2.419865 0.774600 0.230952 -0.342552 0.762670 -0.372718 0.336202 0.015278 -3.000731 -0.166464 0.000000 0.000000 0.000000 5.688193 7.753907 -2.146174 -0.305773 8.829356 1.832552 1.472519 -3.864011 5.561105 0.000000 0.000000 0.000000 -2.636131 2.312143 2.711642 -0.716406 2.685072 -0.699982 -1.820976 -3.604040 -5.729331 0.000000 0.000000 0.000000 1.465456 -3.441387 1.725845 1.451075 -1.230203 -0.024956 1.395819 -1.323770 0.498144 0.000000 0.000000 0.000000 -5.593075 -3.195662 0.348541 -5.444412 -0.398272 -1.117427 -5.350455 -1.166993 -2.416663 0.000000 0.000000 0.000000 
120.884000 -148.921010 1144.775020 3.530728 3.895356 -1.207540 0.526865 -0.936743 2.392920 0.563950 0.187900 -0.381892 0.553721 -0.304758 0.347749 0.097955 -2.181994 -0.337723 0.000000 0.000000 0.000000 5.221374 6.895051 -1.601037 -0.398758 7.896947 1.400911 0.938896 -1.846844 4.046555 0.000000 0.000000 0.000000 -2.900030 2.451808 2.329869 -0.580925 2.894065 -0.337829 -1.627679 -3.298974 -5.005297 0.000000 0.000000 0.000000 1.202320 -3.531141 1.674352 1.163620 -0.678243 -0.031678 1.131345 -1.199681 0.391567 0.000000 0.000000 0.000000 -5.867800 -3.352901 0.312577 -5.695872 -0.051186 -1.186412 -5.606201 -1.056900 -2.552820 0.000000 0.000000 0.000000 
126.202000 -148.758000 1145.245970 4.380873 3.878105 -1.092126 0.354674 -0.256963 2.490529 0.378465 0.057319 -0.450455 0.374143 -0.108668 0.381744 0.142342 -1.510929 -0.419435 0.000000 0.000000 0.000000 4.270420 5.716174 -0.916897 -0.497452 6.562439 0.842191 0.346700 -0.321478 1.832781 0.000000 0.000000 0.000000 -3.014404 2.263385 1.702686 -0.409780 2.750455 0.003276 -1.296791 -2.825885 -3.715896 0.000000 0.000000 0.000000 0.950327 -3.763080 1.560916 0.854398 0.529663 0.083864 0.883846 -1.147889 0.285460 0.000000 0.000000 0.000000 -6.129049 -3.482525 0.208551 -5.919931 0.617006 -1.238017 -5.850082 -0.961818 -2.681358 0.000000 0.000000 0.000000 
132.258000 -148.322010 1145.625000 5.026508 3.856425 -1.020627 0.236768 0.247585 2.681591 0.253544 -0.038626 -0.529235 0.253941 0.040539 0.427951 0.167049 -0.852574 -0.461668 0.000000 0.000000 0.000000 3.372806 4.770465 -0.262991 -0.604294 5.473503 0.233007 -0.136228 0.618107 -0.103010 0.000000 0.000000 0.000000 -3.054835 2.044120 0.986253 -0.206267 2.566942 0.407178 -0.914773 -2.127678 -2.437498 0.000000 0.000000 0.000000 0.778314 -3.994965 1.464265 0.623891 1.812694 0.208248 0.724909 -1.201939 0.208668 0.000000 0.000000 0.000000 -6.321441 -3.469977 0.098247 -6.087666 1.166381 -1.225658 -6.034121 -0.951906 -2.769982 0.000000 0.000000 0.000000 
